<mxfile host="app.diagrams.net" modified="2023-12-15T08:37:16.395Z" agent="Mozilla/5.0 (X11; Linux x86_64) AppleWebKit/537.36 (KHTML, like Gecko) Chrome/119.0.0.0 Safari/537.36" etag="EjNtBneXEb-JrA5nQh5y" version="22.1.9" type="github">
  <diagram name="Page-1" id="8_7_N_60OG5D65UDgKmP">
    <mxGraphModel dx="1434" dy="756" grid="1" gridSize="10" guides="1" tooltips="1" connect="1" arrows="1" fold="1" page="1" pageScale="1" pageWidth="850" pageHeight="1100" math="0" shadow="0">
      <root>
        <mxCell id="0" />
        <mxCell id="1" parent="0" />
        <mxCell id="_81TZ_V6RUeEekABkICf-2" value="" style="whiteSpace=wrap;html=1;aspect=fixed;" vertex="1" parent="1">
          <mxGeometry x="100" y="140" width="300" height="300" as="geometry" />
        </mxCell>
        <UserObject label="Authentication" treeRoot="1" id="_81TZ_V6RUeEekABkICf-7">
          <mxCell style="whiteSpace=wrap;html=1;align=center;treeFolding=1;treeMoving=1;newEdgeStyle={&quot;edgeStyle&quot;:&quot;elbowEdgeStyle&quot;,&quot;startArrow&quot;:&quot;none&quot;,&quot;endArrow&quot;:&quot;none&quot;};" vertex="1" parent="1">
            <mxGeometry x="190" y="190" width="120" height="60" as="geometry" />
          </mxCell>
        </UserObject>
        <mxCell id="_81TZ_V6RUeEekABkICf-8" value="" style="edgeStyle=orthogonalEdgeStyle;sourcePerimeterSpacing=0;targetPerimeterSpacing=0;startArrow=none;endArrow=none;rounded=0;targetPortConstraint=eastwest;sourcePortConstraint=northsouth;curved=0;rounded=0;" edge="1" target="_81TZ_V6RUeEekABkICf-10" parent="1">
          <mxGeometry relative="1" as="geometry">
            <mxPoint x="250" y="250" as="sourcePoint" />
          </mxGeometry>
        </mxCell>
        <mxCell id="_81TZ_V6RUeEekABkICf-9" value="" style="edgeStyle=orthogonalEdgeStyle;sourcePerimeterSpacing=0;targetPerimeterSpacing=0;startArrow=none;endArrow=none;rounded=0;targetPortConstraint=eastwest;sourcePortConstraint=northsouth;curved=0;rounded=0;" edge="1" target="_81TZ_V6RUeEekABkICf-11" parent="1">
          <mxGeometry relative="1" as="geometry">
            <mxPoint x="250" y="250" as="sourcePoint" />
          </mxGeometry>
        </mxCell>
        <mxCell id="_81TZ_V6RUeEekABkICf-10" value="Sign Up" style="whiteSpace=wrap;html=1;align=center;verticalAlign=middle;treeFolding=1;treeMoving=1;" vertex="1" parent="1">
          <mxGeometry x="140" y="290" width="100" height="60" as="geometry" />
        </mxCell>
        <mxCell id="_81TZ_V6RUeEekABkICf-11" value="Sign In" style="whiteSpace=wrap;html=1;align=center;verticalAlign=middle;treeFolding=1;treeMoving=1;" vertex="1" parent="1">
          <mxGeometry x="260" y="290" width="100" height="60" as="geometry" />
        </mxCell>
      </root>
    </mxGraphModel>
  </diagram>
</mxfile>
